<?xml version="1.0" encoding="utf-8"?>
<!-- Generator: Adobe Illustrator 24.2.3, SVG Export Plug-In . SVG Version: 6.00 Build 0)  -->
<svg version="1.1" id="Layer_1" xmlns="http://www.w3.org/2000/svg" xmlns:xlink="http://www.w3.org/1999/xlink" x="0px" y="0px"
	 viewBox="0 0 394.69 415.12" style="enable-background:new 0 0 394.69 415.12;" xml:space="preserve">
<style type="text/css">
	.st0{fill:#FFB235;stroke:#000000;stroke-width:3;stroke-miterlimit:10;}
	.st1{fill:#0056B4;stroke:#000000;stroke-width:3;stroke-miterlimit:10;}
	.st2{fill:#FFFFFF;stroke:#000000;stroke-miterlimit:10;}
	.st3{fill:#FFB235;stroke:#000000;stroke-miterlimit:10;}
	.st4{stroke:#000000;stroke-width:3;stroke-miterlimit:10;}
	.st5{fill:none;stroke:#000000;stroke-width:3;stroke-miterlimit:10;}
</style>
<g>
	<path class="st0" d="M255.13,388.48c-1.46-0.93-2.6-1.63-2.62-1.58c0,0,0,0,0,0c0,0,0,0,0,0c0.6,8.07,6.64,14.56,6.64,14.56
		c1.7,1.83,4.83,4.65,9.54,6.11c16.85,3.11,30.05,3.24,39.16,2.72c6.39-0.37,14.05-1.24,15.95-7.16c0.76-2.37,0.8-5.18-0.89-9.76
		c-6.46-17.5-8.48-22.22-8.74-22.06c-0.23,0.15,0.04,1.78,2.14,8.11"/>
	<path class="st0" d="M103.1,389.88c2.14,5.43,6.85,14.58,16.57,19.86c16.5,8.96,35.21,0.09,42.39-3.31
		c9.38-4.44,15.82-10.31,19.66-14.39"/>
	<path class="st1" d="M360.16,169.57c22.45,27.78,36.16,97.81,32.42,107.61c-3.74,9.8-20.75,0-20.75,0"/>
	<path class="st1" d="M365.75,196.9c3.19,16.11,5.86,29.94,6.15,49.23c0.35,22.52,1.43,93.4-40,129.23
		c-11.18,9.67-16.42,9.18-136.15,16.92c-39.83,2.58-64.34,3.06-87.67,0.7c-6.03-0.61-19.42-2.55-35.63-5.74
		c-9.7-1.91-20.61-4.08-33.91-8.15c-19.27-5.89-37.11-11.34-37.03-17.47c0.09-7.45,26.63-12.86,36.99-14.76c0,0,0,0,0,0
		c-5.71-16.92-11.8-39.68-14.76-67.06c-1.43-13.28-4.59-43.65,2.01-82.91c10.51-62.48,20.17-119.92,69.23-160
		c42.58-34.79,92.67-35.3,100.77-35.38c12.5-0.14,44.92-0.11,77.69,18.46C337.97,56.54,353.81,136.58,365.75,196.9z"/>
	<path class="st2" d="M312.12,341.67c-11.19,10.62-33.83,10.48-78.65,9.78c-47.3-0.74-71.2-1.36-83.1-13.33
		c-16.07-16.16-13.63-40.44-8.77-88.9c4.96-49.5,8.43-84.1,33.66-103.07c10.88-8.18,34.2-19.77,56.38-20.41
		c0.79-0.02,1.41-0.03,1.84-0.03c0,0,23.45-0.2,44.88,10.66c28.03,14.21,36.02,76.1,40.17,108.23
		C325.49,298.65,328.98,325.67,312.12,341.67z"/>
	<ellipse class="st3" cx="218.06" cy="94.6" rx="60" ry="14.62"/>
	<path class="st1" d="M62.47,172.2c0.16-2.19,0.13-2.63,0.07-2.64c-0.64-0.08-18.51,58.18,3.47,105.74
		c2.41,5.21,11.3,24.46,21.19,23.68c6.29-0.49,11.71-9,18.45-30.88c6.21-20.13,13.13-50.23,13.96-89.95"/>
	<circle class="st4" cx="153.14" cy="68.24" r="9.36"/>
	<circle class="st4" cx="276.07" cy="68.24" r="9.36"/>
	<line class="st5" x1="156.94" y1="44.59" x2="130.62" y2="62.63"/>
	<line class="st5" x1="271.48" y1="47.5" x2="299.37" y2="58.88"/>
</g>
</svg>
