<?xml version="1.0" encoding="utf-8"?>
<!-- Generator: Adobe Illustrator 24.2.3, SVG Export Plug-In . SVG Version: 6.00 Build 0)  -->
<svg version="1.1" id="Layer_1" xmlns="http://www.w3.org/2000/svg" xmlns:xlink="http://www.w3.org/1999/xlink" x="0px" y="0px"
	 width="50px" height="50px" viewBox="0 0 332.35 294.02" style="enable-background:new 0 0 332.35 294.02;" xml:space="preserve">
<style type="text/css">
	.st0{fill:#FFFFFF;}
	.st1{fill:none;stroke:#073763ff;stroke-width:9;stroke-miterlimit:10;}

</style>
<g>
	<path class="st0" d="M233.59,138.59c-2.77-2.68-7.29-7.06-10.06-9.74L171.2,78.2c-2.77-2.68-7.29-2.68-10.06,0l-52.33,50.65
		c-2.77,2.68-7.29,7.06-10.06,9.74l-21.31,20.62c-2.77,2.68-5.03,8.02-5.03,11.87v111.44c0,3.85,3.15,7,7,7h54.26c3.85,0,7-3.15,7-7
		v-64.19c0-3.85,3.15-7,7-7h37.02c3.85,0,7,3.15,7,7v64.19c0,3.85,3.15,7,7,7h56.46c3.85,0,7-3.15,7-7v-109.3
		c0-3.85-2.26-9.19-5.03-11.87L233.59,138.59z M326.24,156.56c2.77,2.68,1.88,4.87-1.97,4.87H296c-3.85,0-9.26-2.19-12.03-4.87
		l-26.84-25.98c-2.77-2.68-7.29-7.06-10.06-9.74l-20.01-19.36c-2.77-2.68-7.29-7.06-10.06-9.74l-45.8-44.33
		c-2.77-2.68-7.29-2.68-10.06,0l-45.8,44.33c-2.77,2.68-7.29,7.06-10.06,9.74l-18.03,17.45c-2.77,2.68-7.29,7.06-10.06,9.74
		l-28.82,27.89c-2.77,2.68-8.18,4.87-12.03,4.87H8.08c-3.85,0-4.74-2.19-1.97-4.87L161.14,6.51c2.77-2.68,7.29-2.68,10.06,0
		l50.49,48.87c2.77,2.68,5.03,1.72,5.03-2.13V24.17c0-3.85,3.15-7,7-7h15.42c3.85,0,7,3.15,7,7v56.84c0,3.85-0.17,7-0.37,7
		c-0.2,0,1.89,2.19,4.66,4.87L326.24,156.56z"/>
	<path class="header_icon" d="M233.59,138.59c-2.77-2.68-7.29-7.06-10.06-9.74L171.2,78.2c-2.77-2.68-7.29-2.68-10.06,0l-52.33,50.65
		c-2.77,2.68-7.29,7.06-10.06,9.74l-21.31,20.62c-2.77,2.68-5.03,8.02-5.03,11.87v111.44c0,3.85,3.15,7,7,7h54.26c3.85,0,7-3.15,7-7
		v-64.19c0-3.85,3.15-7,7-7h37.02c3.85,0,7,3.15,7,7v64.19c0,3.85,3.15,7,7,7h56.46c3.85,0,7-3.15,7-7v-109.3
		c0-3.85-2.26-9.19-5.03-11.87L233.59,138.59z M326.24,156.56c2.77,2.68,1.88,4.87-1.97,4.87H296c-3.85,0-9.26-2.19-12.03-4.87
		l-26.84-25.98c-2.77-2.68-7.29-7.06-10.06-9.74l-20.01-19.36c-2.77-2.68-7.29-7.06-10.06-9.74l-45.8-44.33
		c-2.77-2.68-7.29-2.68-10.06,0l-45.8,44.33c-2.77,2.68-7.29,7.06-10.06,9.74l-18.03,17.45c-2.77,2.68-7.29,7.06-10.06,9.74
		l-28.82,27.89c-2.77,2.68-8.18,4.87-12.03,4.87H8.08c-3.85,0-4.74-2.19-1.97-4.87L161.14,6.51c2.77-2.68,7.29-2.68,10.06,0
		l50.49,48.87c2.77,2.68,5.03,1.72,5.03-2.13V24.17c0-3.85,3.15-7,7-7h15.42c3.85,0,7,3.15,7,7v56.84c0,3.85-0.17,7-0.37,7
		c-0.2,0,1.89,2.19,4.66,4.87L326.24,156.56z"/>
</g>
</svg>
