<?xml version="1.0" encoding="utf-8"?>
<!-- Generator: Adobe Illustrator 24.2.3, SVG Export Plug-In . SVG Version: 6.00 Build 0)  -->
<svg version="1.1" id="Layer_1" xmlns="http://www.w3.org/2000/svg" xmlns:xlink="http://www.w3.org/1999/xlink" x="0px" y="0px"
	 viewBox="0 0 50 44.95" style="enable-background:new 0 0 50 44.95;" xml:space="preserve">
<style type="text/css">
	.st0{fill:#FFFFFF;}
</style>
<path class="header_icon" d="M3.96,11.98h8.15v-1.19h8.87v1.19h8.14v-1.19h9.37v1.19h8.14v-1.19h2.38v-2.6L25.05,0L1.08,8.19v2.6h2.88V11.98
	z M3.91,12.81c-0.01,0.19-0.01,0.58,0.17,1c0.22,0.52,0.59,0.81,0.75,0.92c2.03,0,4.06,0,6.09,0c0.14-0.06,0.67-0.3,0.97-0.92
	c0.2-0.43,0.19-0.82,0.17-1H3.91z M21.1,13.86c0.22,0.52,0.59,0.81,0.75,0.92c2.03,0,4.06,0,6.09,0c0.14-0.06,0.67-0.3,0.97-0.92
	c0.2-0.43,0.19-0.82,0.17-1h-8.15C20.92,13.05,20.92,13.43,21.1,13.86z M38.56,13.86c0.22,0.52,0.59,0.81,0.75,0.92
	c2.03,0,4.06,0,6.09,0c0.14-0.06,0.67-0.3,0.97-0.92c0.2-0.43,0.19-0.82,0.17-1H38.4C38.38,13.05,38.38,13.43,38.56,13.86z
	 M48.96,39.99h-1.8c0-0.5,0-1.01,0-1.51c-0.65,0-1.3,0-1.95,0V15.96h-5.82v22.52c-0.65,0-1.3,0-1.95,0v1.51h-7.71v-1.51h-1.95V15.93
	h-5.82v22.55h-1.95v1.51h-7.3v-1.51h-1.95V15.93H4.97v22.55H3.03v1.51h-2v2.82h47.93C48.97,42.81,48.97,39.99,48.96,39.99z M0,42.13
	h50v2.82H0V42.13z"/>
</svg>
